<svg xmlns="http://www.w3.org/2000/svg">
    <symbol id="icon_facebook" viewBox="0 0 7 16">
      <path d="M4.642 7.985V16H1.496V7.985H0V5.168h1.496V3.345C1.496 2.04 2.084 0 4.67 0L7 .01v2.735H5.31c-.278 0-.668.146-.668.767V5.17h2.35l-.274 2.815H4.642z"/>
    </symbol>
    <symbol id="icon_instagram" viewBox="0 0 510 510">
      <path d="M459 0H51C22.95 0 0 22.95 0 51v408c0 28.05 22.95 51 51 51h408c28.05 0 51-22.95 51-51V51c0-28.05-22.95-51-51-51zM255 153c56.1 0 102 45.9 102 102s-45.9 102-102 102-102-45.9-102-102 45.9-102 102-102zM63.75 459C56.1 459 51 453.9 51 446.25V229.5h53.55C102 237.15 102 247.35 102 255c0 84.15 68.85 153 153 153s153-68.85 153-153c0-7.65 0-17.85-2.55-25.5H459v216.75c0 7.65-5.1 12.75-12.75 12.75H63.75zM459 114.75c0 7.65-5.1 12.75-12.75 12.75h-51c-7.65 0-12.75-5.1-12.75-12.75v-51c0-7.65 5.1-12.75 12.75-12.75h51C453.9 51 459 56.1 459 63.75v51z"/>
    </symbol>
    <symbol id="icon_twitter" viewBox="0 0 14 12">
      <path d="M14 1.42a5.5 5.5 0 0 1-1.65.477A3.015 3.015 0 0 0 13.613.221c-.555.348-1.17.6-1.824.735A2.802 2.802 0 0 0 9.692 0C8.106 0 6.82 1.357 6.82 3.03c0 .237.026.468.075.69C4.508 3.594 2.39 2.388.975.554a3.144 3.144 0 0 0-.39 1.523c0 1.051.508 1.979 1.278 2.522a2.74 2.74 0 0 1-1.3-.38v.039c0 1.468.99 2.692 2.303 2.97a2.723 2.723 0 0 1-1.297.053c.366 1.203 1.426 2.079 2.683 2.103A5.576 5.576 0 0 1 0 10.64 7.822 7.822 0 0 0 4.403 12c5.283 0 8.172-4.616 8.172-8.62 0-.131-.003-.262-.008-.391A6.012 6.012 0 0 0 14 1.42z"/>
    </symbol>
    <symbol id="icon_vkontakte" viewBox="0 0 16 9">
      <path d="M8.785 8.962s.288-.03.436-.188c.136-.144.131-.414.131-.414s-.018-1.265.577-1.452c.587-.183 1.341 1.223 2.14 1.764.605.41 1.064.32 1.064.32l2.137-.03s1.117-.068.587-.934c-.043-.071-.308-.641-1.588-1.813-1.34-1.226-1.16-1.027.453-3.148.983-1.292 1.376-2.08 1.253-2.418-.117-.322-.84-.237-.84-.237L12.73.427s-.179-.024-.311.054c-.13.076-.213.254-.213.254s-.38 1-.888 1.85c-1.071 1.794-1.5 1.888-1.675 1.777-.407-.26-.305-1.043-.305-1.6 0-1.738.267-2.462-.521-2.65C8.555.05 8.363.01 7.694.002 6.836-.007 6.11.005 5.698.203c-.274.133-.485.427-.356.444.159.02.519.096.71.352.246.33.237 1.073.237 1.073s.142 2.047-.33 2.3c-.325.175-.77-.18-1.725-1.808A15.033 15.033 0 0 1 3.376.809S3.304.637 3.177.545a1.006 1.006 0 0 0-.37-.147L.522.412S.178.422.052.57C-.06.699.043.971.043.971S1.833 5.099 3.86 7.18c1.858 1.908 3.968 1.782 3.968 1.782h.957z"/>
    </symbol>
    <symbol id="icon_youtube" viewBox="0 0 510 510">
      <path d="M459 61.2C443.7 56.1 349.35 51 255 51S66.3 56.1 51 61.2C10.2 73.95 0 163.2 0 255s10.2 181.05 51 193.8c15.3 5.1 109.65 10.2 204 10.2s188.7-5.1 204-10.2c40.8-12.75 51-102 51-193.8S499.8 73.95 459 61.2zM204 369.75v-229.5L357 255 204 369.75z"/>
    </symbol></svg>