<?xml version="1.0" encoding="UTF-8" standalone="no"?>
<svg width="14px" height="12px" viewBox="0 0 14 12" version="1.1" xmlns="http://www.w3.org/2000/svg" xmlns:xlink="http://www.w3.org/1999/xlink">
    <!-- Generator: Sketch 40.1 (33804) - http://www.bohemiancoding.com/sketch -->
    <title>twitter</title>
    <desc>Created with Sketch.</desc>
    <defs></defs>
    <g id="Page-1" stroke="none" stroke-width="1" fill="none" fill-rule="evenodd">
        <g id="Mobile-Portrait" transform="translate(-231.000000, -13797.000000)" fill="#2B2B51">
            <g id="Group-15" transform="translate(20.000000, 13792.000000)">
                <g id="Group-8">
                    <path d="M225,6.42061565 C224.485052,6.66145157 223.931118,6.82434341 223.350194,6.89709122 C223.943328,6.52228184 224.398513,5.92922903 224.61336,5.22140638 C224.058356,5.56865292 223.443373,5.82055916 222.789406,5.95634002 C222.265461,5.3678057 221.518957,5 220.692341,5 C219.106368,5 217.820068,6.3566789 217.820068,8.02942672 C217.820068,8.26687376 217.845558,8.49799492 217.894825,8.71985315 C215.507727,8.59356114 213.391169,7.38757413 211.974418,5.55419373 C211.727225,6.00152499 211.585422,6.52228184 211.585422,7.07737927 C211.585422,8.12815589 212.092873,9.05580345 212.863154,9.59892686 C212.392546,9.58333804 211.949356,9.44710534 211.562288,9.21959898 C211.562074,9.2324767 211.562074,9.24535442 211.562074,9.25800621 C211.562074,10.7258402 212.552557,11.9501271 213.866275,12.2282406 C213.625509,12.2978255 213.371248,12.3346512 213.109703,12.3346512 C212.924202,12.3346512 212.744484,12.3158995 212.569265,12.2806552 C212.934698,13.4839311 213.995226,14.3598419 215.252395,14.3844677 C214.269194,15.1971195 213.030876,15.6812765 211.684813,15.6812765 C211.453472,15.6812765 211.224272,15.6670432 211,15.6388026 C212.270449,16.4986727 213.780593,17 215.402552,17 C220.6857,17 223.574895,12.3839029 223.574895,8.38028805 C223.574895,8.2490257 223.572111,8.11821519 223.566541,7.98853431 C224.128186,7.56153629 224.615074,7.02812765 225,6.42061565 L225,6.42061565 L225,6.42061565 Z" id="twitter"></path>
                </g>
            </g>
        </g>
    </g>
</svg>