<?xml version="1.0" encoding="UTF-8" standalone="no"?>
<svg width="16px" height="9px" viewBox="0 0 16 9" version="1.1" xmlns="http://www.w3.org/2000/svg" xmlns:xlink="http://www.w3.org/1999/xlink">
    <!-- Generator: Sketch 40.1 (33804) - http://www.bohemiancoding.com/sketch -->
    <title>vk</title>
    <desc>Created with Sketch.</desc>
    <defs></defs>
    <g id="Page-1" stroke="none" stroke-width="1" fill="none" fill-rule="evenodd">
        <g id="Mobile-Portrait" transform="translate(-116.000000, -13799.000000)" fill="#2B2B51">
            <g id="Group-15" transform="translate(20.000000, 13792.000000)">
                <g id="Group-8">
                    <path d="M104.784551,15.9623196 C104.784551,15.9623196 105.073442,15.9310506 105.220928,15.7742774 C105.356685,15.6303545 105.352341,15.3600706 105.352341,15.3600706 C105.352341,15.3600706 105.333661,14.0947481 105.929254,13.9084193 C106.516375,13.7248747 107.270315,15.1313359 108.069434,15.6721178 C108.673715,16.0813987 109.132899,15.991661 109.132899,15.991661 L111.269605,15.9623196 C111.269605,15.9623196 112.387373,15.8944274 111.857378,15.0278913 C111.813936,14.9570007 111.548721,14.3868774 110.268696,13.2153618 C108.928938,11.9892325 109.108355,12.1875549 110.722233,10.0666191 C111.705113,8.7749535 112.098048,7.98637571 111.975323,7.64862797 C111.858247,7.32694306 111.135368,7.41196897 111.135368,7.41196897 L108.729539,7.42674677 C108.729539,7.42674677 108.551208,7.40275961 108.418927,7.48071787 C108.289686,7.55717694 108.206494,7.73536725 108.206494,7.73536725 C108.206494,7.73536725 107.825723,8.73490351 107.317884,9.58494839 C106.246599,11.3786309 105.818259,11.4732945 105.643187,11.3619255 C105.235916,11.1023502 105.337571,10.3191267 105.337571,9.76271035 C105.337571,8.02449816 105.604957,7.29974334 104.816916,7.11212951 C104.555394,7.04980573 104.362945,7.00868489 103.694152,7.00204559 C102.835734,6.99326458 102.109163,7.00461564 101.697765,7.20336637 C101.424079,7.33550991 101.21295,7.62999509 101.341539,7.6469146 C101.500537,7.66790337 101.860673,7.74264906 102.051602,7.9990118 C102.298136,8.32969189 102.289448,9.07243708 102.289448,9.07243708 C102.289448,9.07243708 102.431069,11.1186272 101.958635,11.3728483 C101.634339,11.5471835 101.189491,11.1912312 100.234414,9.56395962 C99.7450375,8.73040592 99.3755615,7.80904208 99.3755615,7.80904208 C99.3755615,7.80904208 99.3043162,7.63684856 99.1772478,7.54475502 C99.0230279,7.4331719 98.8075546,7.39761951 98.8075546,7.39761951 L96.5214082,7.41239731 C96.5214082,7.41239731 96.1782147,7.42182084 96.0522323,7.56895634 C95.9401514,7.69981485 96.0433266,7.97052705 96.0433266,7.97052705 C96.0433266,7.97052705 97.8331457,12.0993164 99.8597249,14.1799881 C101.717966,16.0876096 103.828171,15.9623196 103.828171,15.9623196 L104.784551,15.9623196 Z" id="vk"></path>
                </g>
            </g>
        </g>
    </g>
</svg>